#!OML:ASF F:\VICON\USERDATA\INSTALL\Justin_Nancy\Justin_Nancy.ASF
:FULLY-SPECIFIED
:DEGREES
48
root 12.3823 17.4185 -19.3969 1.34168 3.41396 4.4392
lowerback 6.43944 -1.99463 -6.42712
upperback -0.179559 -3.08952 1.51901
thorax -3.37761 -1.41413 5.47343
lowerneck -16.2313 -3.41455 -9.24977
upperneck 23.142 -3.59229 5.13131
head 10.3542 -1.87215 2.8849
rclavicle 2.27111e-014 -9.54166e-015
rhumerus -36.8313 -18.8038 -75.4953
rradius 25.491
rwrist 12.055
rhand -13.0514 13.9795
rfingers 7.12502
rthumb 13.0437 -15.5927
lclavicle 2.27111e-014 -9.54166e-015
lhumerus -22.3984 6.20568 85.7857
lradius 30.6207
lwrist -8.23849
lhand -14.3862 27.8226
lfingers 7.12502
lthumb 11.7567 57.4727
rfemur -30.2929 1.43641 15.2177
rtibia 29.518
rfoot -2.9395 -11.8279
rtoes 1.10075
lfemur -0.408973 1.68887 -30.2434
ltibia 22.026
lfoot -16.5798 -5.66888
ltoes 7.8176
49
root 12.3804 17.4128 -19.2495 1.47638 3.64778 4.37008
lowerback 6.30086 -2.03043 -6.37792
upperback -0.167328 -3.12184 1.58684
thorax -3.2811 -1.4349 5.51168
lowerneck -15.5059 -3.64881 -8.94236
upperneck 22.5287 -3.89972 4.50864
head 10.0028 -2.0601 2.56527
rclavicle 2.12203e-014 -1.74931e-014
rhumerus -36.9893 -18.5995 -75.4526
rradius 25.6389
rwrist 11.7738
rhand -12.8226 12.3623
rfingers 7.12502
rthumb 13.2642 -17.1956
lclavicle 2.12203e-014 -1.74931e-014
lhumerus -22.0883 5.86946 85.9211
lradius 30.9643
lwrist -7.8307
lhand -14.2738 26.8001
lfingers 7.12502
lthumb 11.8651 56.444
rfemur -30.0849 1.38249 15.2918
rtibia 26.8137
rfoot -3.38952 -12.2393
rtoes 3.85474
lfemur 0.428203 1.68848 -30.0791
ltibia 21.2868
lfoot -16.6129 -5.8714
ltoes 7.14145
50
root 12.382 17.4092 -19.0976 1.66997 3.48676 4.48107
lowerback 5.9745 -2.01997 -6.44344
upperback -0.0321356 -3.08913 1.54523
thorax -2.96014 -1.43436 5.4812
lowerneck -16.3787 -3.7253 -9.39512
upperneck 23.2091 -3.94959 5.02474
head 10.4395 -2.06014 2.81949
rclavicle 4.67144e-014 0
rhumerus -36.8164 -18.5756 -75.6007
rradius 25.7059
rwrist 11.8335
rhand -12.8375 10.6514
rfingers 7.12502
rthumb 13.2498 -18.9075
lclavicle 4.67144e-014 0
lhumerus -21.6047 5.52266 85.9194
lradius 31.3617
lwrist -7.29013
lhand -14.6594 26.3959
lfingers 7.12502
lthumb 11.4933 56.0608
rfemur -29.9674 1.18922 15.3366
rtibia 24.1083
rfoot -3.79658 -11.9058
rtoes 4.25283
lfemur 1.10718 1.97365 -30.1445
ltibia 20.7351
lfoot -16.7247 -6.00595
ltoes 7.18362
51
root 12.381 17.4041 -18.9467 1.91367 3.78922 4.75506
lowerback 5.7245 -2.19193 -6.58871
upperback 0.385775 -3.30063 1.5225
thorax -2.34793 -1.574 5.52587
lowerneck -17.5688 -3.77361 -9.23422
upperneck 22.7315 -3.84675 4.71851
head 10.4753 -2.01219 2.68045
rclavicle -7.20594e-015 1.74931e-014
rhumerus -35.7794 -18.6363 -75.9262
rradius 25.4858
rwrist 12.0992
rhand -13.0617 10.7519
rfingers 7.12502
rthumb 13.0337 -18.8209
lclavicle -7.20594e-015 1.74931e-014
lhumerus -20.4811 5.69478 85.9867
lradius 31.6338
lwrist -7.09355
lhand -15.1152 25.7333
lfingers 7.12502
lthumb 11.0536 55.4222
rfemur -29.7511 0.83683 15.1366
rtibia 21.4606
rfoot -4.14848 -11.4915
rtoes 2.22375
lfemur 1.7685 2.0678 -30.313
ltibia 20.1996
lfoot -16.8935 -6.31504
ltoes 6.66447
52
root 12.3774 17.3982 -18.8012 2.1203 4.33245 4.75621
lowerback 5.64498 -2.34275 -6.70391
upperback 0.0447851 -3.51147 1.59139
thorax -2.61734 -1.65742 5.68325
lowerneck -16.9553 -3.26546 -9.34996
upperneck 22.4734 -3.27927 5.20791
head 10.2275 -1.70856 2.95916
rclavicle 9.0447e-015 -7.15625e-015
rhumerus -36.6083 -18.3115 -75.7162
rradius 25.638
rwrist 11.8382
rhand -13.3652 10.7447
rfingers 7.12502
rthumb 12.7412 -18.8465
lclavicle 9.0447e-015 -7.15625e-015
lhumerus -20.9141 5.45802 85.9954
lradius 31.9764
lwrist -6.88118
lhand -14.5637 26.5696
lfingers 7.12502
lthumb 11.5855 56.2294
rfemur -29.4474 0.848758 15.0334
rtibia 18.9936
rfoot -4.70543 -11.5598
rtoes 0.286467
lfemur 2.43956 1.99255 -30.126
ltibia 19.6473
lfoot -16.9103 -6.76512
ltoes 6.42568
53
root 12.3736 17.3926 -18.6578 2.28927 4.57402 4.74245
lowerback 5.64375 -2.39681 -6.60357
upperback 0.283787 -3.56865 1.65046
thorax -2.36144 -1.70405 5.68313
lowerneck -18.8121 -3.84242 -10.1002
upperneck 23.9328 -3.82951 5.62496
head 11.1957 -1.97206 3.17046
rclavicle -3.73715e-014 1.59028e-015
rhumerus -36.0686 -19.0473 -75.4667
rradius 24.9894
rwrist 13.0896
rhand -14.1806 12.7279
rfingers 7.12502
rthumb 11.9549 -16.9108
lclavicle -3.73715e-014 1.59028e-015
lhumerus -19.9627 5.54801 86.1347
lradius 32.0997
lwrist -6.7323
lhand -14.3395 25.2905
lfingers 7.12502
lthumb 11.8017 54.938
rfemur -29.1637 1.24028 14.881
rtibia 16.6935
rfoot -4.9762 -11.5796
rtoes -2.85193
lfemur 3.05742 1.9067 -29.9823
ltibia 19.2229
lfoot -16.8795 -6.99513
ltoes 5.93301
54
root 12.3752 17.3811 -18.5155 2.48972 4.66367 4.9667
lowerback 5.62339 -2.40714 -6.77243
upperback -0.0741021 -3.60498 1.54516
thorax -2.71442 -1.696 5.68207
lowerneck -17.9413 -3.8226 -9.94087
upperneck 24.152 -3.91467 5.48042
head 11.1096 -2.02983 3.08613
rclavicle -1.04362e-015 0
rhumerus -36.9608 -19.1753 -75.0831
rradius 24.8915
rwrist 13.4524
rhand -14.1546 13.0946
rfingers 7.12502
rthumb 11.98 -16.5426
lclavicle -1.04362e-015 0
lhumerus -20.4944 5.40949 86.0234
lradius 32.4043
lwrist -6.80179
lhand -13.523 27.5606
lfingers 7.12502
lthumb 12.589 57.1613
rfemur -28.9913 1.66808 14.4566
rtibia 14.7707
rfoot -5.186 -11.4435
rtoes -6.9451
lfemur 3.51402 1.96763 -30.1475
ltibia 18.84
lfoot -16.8952 -7.21072
ltoes 4.69778
55
root 12.3706 17.3642 -18.3766 2.60916 4.5029 4.90685
lowerback 5.60552 -2.32079 -6.83641
upperback -0.399735 -3.50227 1.55417
thorax -3.05511 -1.62034 5.73233
lowerneck -16.7985 -3.70157 -9.49471
upperneck 23.9458 -3.89545 5.13179
head 10.7907 -2.03561 2.89047
rclavicle -2.09718e-014 -9.54166e-015
rhumerus -37.7061 -18.8192 -74.9801
rradius 24.9928
rwrist 13.0242
rhand -13.9368 12.7374
rfingers 7.12502
rthumb 12.1901 -16.8874
lclavicle -2.09718e-014 -9.54166e-015
lhumerus -20.9314 5.07349 85.9757
lradius 32.5423
lwrist -6.85813
lhand -14.6986 22.8254
lfingers 7.12502
lthumb 11.4554 52.4925
rfemur -28.9246 2.31502 14.4096
rtibia 13.4037
rfoot -5.80289 -11.2537
rtoes -8.7057
lfemur 3.94437 1.97235 -30.052
ltibia 18.4054
lfoot -16.721 -7.19349
ltoes 3.37939
56
root 12.3713 17.3524 -18.2354 2.54605 4.64775 5.02556
lowerback 5.75313 -2.26176 -6.91505
upperback -0.499399 -3.44472 1.48437
thorax -3.25078 -1.57953 5.71178
lowerneck -16.3873 -3.81736 -9.44808
upperneck 23.8969 -4.12328 5.16646
head 10.7118 -2.13623 2.86452
rclavicle -2.83765e-014 2.38542e-015
rhumerus -38.0703 -19.1929 -74.6547
rradius 24.7897
rwrist 13.3375
rhand -13.6436 13.1343
rfingers 7.12502
rthumb 12.4727 -16.4735
lclavicle -2.83765e-014 2.38542e-015
lhumerus -20.9186 4.80706 86.0014
lradius 32.4928
lwrist -6.96414
lhand -14.5012 25.5025
lfingers 7.12502
lthumb 11.6458 55.1589
rfemur -28.632 1.88552 14.5173
rtibia 12.607
rfoot -6.54735 -10.4286
rtoes -9.85303
lfemur 4.71986 1.91833 -30.0581
ltibia 17.9817
lfoot -16.5459 -7.48379
ltoes 3.15156
57
root 12.3691 17.3447 -18.0929 2.60896 4.67626 5.23595
lowerback 5.69947 -2.19958 -7.09766
upperback -0.408028 -3.36957 1.42553
thorax -3.12974 -1.54708 5.74187
lowerneck -16.5249 -3.96078 -9.67804
upperneck 23.9287 -4.29409 5.33941
head 10.7752 -2.21271 2.94045
rclavicle -3.14577e-014 -5.56597e-015
rhumerus -38.032 -19.8695 -74.3087
rradius 24.517
rwrist 13.9592
rhand -13.5712 13.4159
rfingers 7.12502
rthumb 12.5426 -16.1876
lclavicle -3.14577e-014 -5.56597e-015
lhumerus -20.5204 4.8118 86.0424
lradius 32.4386
lwrist -7.0605
lhand -14.6559 26.0371
lfingers 7.12502
lthumb 11.4966 55.7018
rfemur -28.6191 1.4654 14.651
rtibia 12.3236
rfoot -6.62403 -9.94477
rtoes -10.6022
lfemur 5.36902 1.77071 -30.1665
ltibia 17.7179
lfoot -16.4821 -7.57377
ltoes 2.49038
58
root 12.3719 17.3319 -17.9398 2.64621 4.06445 5.1268
lowerback 5.35969 -2.00637 -6.94149
upperback -0.17477 -3.07019 1.40145
thorax -2.7489 -1.42327 5.58378
lowerneck -16.5288 -3.97258 -9.61493
upperneck 23.5208 -4.3037 5.30228
head 10.624 -2.21028 2.90887
rclavicle -1.54555e-014 -1.43125e-014
rhumerus -37.7084 -20.2098 -74.3734
rradius 24.3599
rwrist 14.162
rhand -13.5957 12.9954
rfingers 7.12502
rthumb 12.5189 -16.6096
lclavicle -1.54555e-014 -1.43125e-014
lhumerus -20.0577 4.82688 85.9731
lradius 32.4992
lwrist -7.16722
lhand -14.8597 25.4731
lfingers 7.12502
lthumb 11.3 55.1487
rfemur -28.9289 0.880578 15.5032
rtibia 12.6704
rfoot -6.32659 -8.85179
rtoes -10.558
lfemur 6.08018 1.76476 -30.0857
ltibia 17.4637
lfoot -16.4115 -7.34047
ltoes 2.42435
59
root 12.3655 17.3198 -17.81 2.76319 3.98297 5.26599
lowerback 5.49005 -1.98904 -7.14089
upperback -0.265935 -3.07327 1.37199
thorax -2.90856 -1.41263 5.6753
lowerneck -16.659 -3.91019 -9.45899
upperneck 23.6071 -4.22895 5.2259
head 10.6682 -2.17037 2.86599
rclavicle 1.98785e-016 6.36111e-015
rhumerus -37.6806 -20.1501 -74.4501
rradius 24.1927
rwrist 14.2036
rhand -13.4153 12.8179
rfingers 7.12502
rthumb 12.6929 -16.7763
lclavicle 1.98785e-016 6.36111e-015
lhumerus -20.0543 4.81365 85.8962
lradius 32.5925
lwrist -7.11754
lhand -15.0966 25.318
lfingers 7.12502
lthumb 11.0716 55.006
rfemur -29.3194 0.234749 15.8906
rtibia 13.3256
rfoot -5.73309 -8.23955
rtoes -8.74858
lfemur 6.54367 1.42839 -30.2266
ltibia 17.3059
lfoot -16.1787 -7.28616
ltoes 2.5916
60
root 12.3581 17.3122 -17.6678 2.69506 4.04796 5.35435
lowerback 5.81193 -1.99111 -7.25594
upperback -0.395818 -3.11283 1.35872
thorax -3.21456 -1.41343 5.74973
lowerneck -16.8183 -3.89183 -9.63543
upperneck 24.0382 -4.20082 5.4114
head 10.8643 -2.15468 2.97277
rclavicle -2.17669e-014 3.97569e-015
rhumerus -37.9396 -20.4606 -74.1839
rradius 23.9953
rwrist 14.6669
rhand -13.2639 13.2313
rfingers 7.12502
rthumb 12.8388 -16.3539
lclavicle -2.17669e-014 3.97569e-015
lhumerus -20.1931 5.00765 85.8341
lradius 32.4873
lwrist -7.38812
lhand -15.5839 23.1954
lfingers 7.12502
lthumb 10.6016 52.908
rfemur -29.4712 -0.408362 16.3295
rtibia 14.2227
rfoot -4.82898 -7.68814
rtoes -6.85496
lfemur 7.18736 1.32206 -30.187
ltibia 17.2421
lfoot -16.0178 -7.52511
ltoes 2.39721
61
root 12.3541 17.3023 -17.5129 2.48392 3.95405 5.30709
lowerback 5.97377 -1.91623 -7.20031
upperback -0.286587 -3.01688 1.3834
thorax -3.20726 -1.36986 5.74242
lowerneck -16.8463 -3.93235 -9.7894
upperneck 23.9885 -4.22524 5.47261
head 10.8593 -2.17138 3.0164
rclavicle -2.41523e-014 -4.77083e-015
rhumerus -37.8462 -20.5625 -74.1007
rradius 23.7993
rwrist 14.723
rhand -13.4028 13.4426
rfingers 7.12502
rthumb 12.7049 -16.1509
lclavicle -2.41523e-014 -4.77083e-015
lhumerus -20.152 5.22973 85.845
lradius 32.4941
lwrist -7.54494
lhand -15.2971 26.0018
lfingers 7.12502
lthumb 10.8782 55.7
rfemur -29.479 -0.618864 16.8453
rtibia 15.3276
rfoot -3.84395 -7.34253
rtoes -7.01098
lfemur 7.99889 1.26015 -30.0338
ltibia 17.256
lfoot -15.8592 -7.65902
ltoes 1.79167
